<svg xmlns="http://www.w3.org/2000/svg" viewBox="0 0 128 128"><defs><linearGradient id="a" x1="28.59" x2="16.67" y1="14.23" y2="23.53" gradientTransform="scale(4)" gradientUnits="userSpaceOnUse"><stop offset=".18" stop-color="#0052cc"/><stop offset="1" stop-color="#2684ff"/></linearGradient></defs><path fill="#2684ff" d="M19.08 20a3.07 3.07 0 0 0-3.04 3.52L29 102.8a4.14 4.14 0 0 0 4.16 3.52H95.8a3.23 3.23 0 0 0 3.04-2.56l13.1-80.08a3 3 0 0 0-3.03-3.52zm54.99 57.23H54.09l-5.28-28.3h30.22zm0 0"/><path fill="url(#a)" d="M107.64 48.93H78.87l-4.8 28.3H54.09l-23.5 27.97s1.12.96 2.72.96h62.66A3.23 3.23 0 0 0 99 103.6zm0 0"/></svg>