<svg xmlns="http://www.w3.org/2000/svg" viewBox="0 0 1000 1000"><style>svg{fill:#000}@media(prefers-color-scheme:dark){svg{fill:#fff}}</style><path d="M0 500v500h1000V0H0v500zm521.485-316.407c56.25 6.64 98.438 18.36 142.577 39.454 35.548 17.577 44.921 24.609 76.174 55.859 26.951 26.953 39.451 42.968 51.951 67.577 29.689 57.423 41.014 126.954 32.421 194.53-10.545 78.91-34.373 130.08-85.547 183.204-67.187 68.752-148.046 100.002-260.936 100.002h-48.438V632.813h34.375c117.19-.39 178.127-61.718 160.936-163.674-5.466-32.81-19.921-57.422-43.746-73.437-30.472-21.094-50.002-25.39-119.142-27.344l-63.672-1.952V820.31H203.125V179.686h141.797c77.735 0 157.422 1.954 176.563 3.907z"/></svg>