<svg xmlns="http://www.w3.org/2000/svg" viewBox="0 0 128 128"><path fill="#8080f2" d="m38.66 48.67 24.26-14.04a2.19 2.19 0 0 1 1.96 0l24.37 14.04a1.96 1.96 0 0 1 1.03 1.65V78.4c0 .72-.41 1.34-1.03 1.76L64.99 94.2a2.19 2.19 0 0 1-1.97 0L38.66 80.16a2 2 0 0 1-1.03-1.76V50.32c0-.62.41-1.34 1.03-1.65"/><path fill="#4b32c3" d="M127.14 61.47 98.13 10.88a6.05 6.05 0 0 0-5.17-3.2H34.95c-2.07 0-4.03 1.35-5.17 3.2l-29 50.49a6.17 6.17 0 0 0 0 5.99l29 50.17c1.04 1.86 3 2.79 5.17 2.79h58.12c2.06 0 4.02-.93 5.16-2.69l29-50.17c1.04-2.07 1.04-4.23-.1-5.99m-24.05 24.26a1.9 1.9 0 0 1-1.14 1.75L65 108.86a1.88 1.88 0 0 1-2.07 0L25.86 87.6c-.62-.41-1.13-1.03-1.13-1.76V43c0-.72.4-1.44 1.13-1.75l37.06-21.37a1.88 1.88 0 0 1 2.07 0l37.06 21.37c.62.4 1.13 1.03 1.13 1.75v42.74z"/></svg>