<svg xmlns="http://www.w3.org/2000/svg" xml:space="preserve" viewBox="0 0 128 128"><path fill="#E24329" d="m124.75 51.38-.17-.45-17.11-44.65a4.46 4.46 0 0 0-1.76-2.12 4.58 4.58 0 0 0-5.24.28 4.58 4.58 0 0 0-1.51 2.3L87.4 42.1H40.63L29.08 6.75a4.5 4.5 0 0 0-1.52-2.31 4.58 4.58 0 0 0-5.24-.28 4.5 4.5 0 0 0-1.76 2.12L3.42 50.9l-.17.46A31.77 31.77 0 0 0 13.8 88.07l.06.05.16.1 26.06 19.53 12.89 9.75 7.85 5.93a5.28 5.28 0 0 0 6.4 0l7.85-5.93 12.89-9.76 26.22-19.63.06-.05a31.78 31.78 0 0 0 10.53-36.68z"/><path fill="#FC6D26" d="m124.75 51.38-.17-.45a57.79 57.79 0 0 0-23 10.34L64 89.68l23.93 18.1 26.22-19.64.07-.05a31.78 31.78 0 0 0 10.54-36.7z"/><path fill="#FCA326" d="m40.07 107.77 12.89 9.76 7.85 5.93a5.28 5.28 0 0 0 6.4 0l7.85-5.93 12.89-9.76L64 89.68a18379.2 18379.2 0 0 0-23.93 18.1z"/><path fill="#FC6D26" d="M26.42 61.27a57.73 57.73 0 0 0-23-10.37l-.17.46A31.77 31.77 0 0 0 13.8 88.07l.06.05.16.1 26.06 19.53L64 89.65 26.42 61.28z"/></svg>