<svg xmlns="http://www.w3.org/2000/svg" viewBox="0 0 128 128"><style>svg{fill:#000}@media(prefers-color-scheme:dark){svg{fill:#fff}}</style><path d="M49.44 48.23a18.44 18.44 0 0 0-3.03.03c-12.7 1-17.73 7.57-20.83 10.34-3.1 2.76-8.82 9.39-12.67 8.2-3.85-1.2-4.93-5.85-3.56-7.32 1.36-1.48 2.42-1.21 3.25 0a6.4 6.4 0 0 1 .8 3.18 7.31 7.31 0 0 0 2.36-3.56c.47-2.05.37-4.04-2.37-5.43-6.93-3.5-11.41 2.75-12.1 4.21-.7 1.46-1.79 3.77-1.03 9.06.76 5.28 3.27 10.14 11.27 12.01a33.7 33.7 0 0 0 22.53-2.63c7-3.34 20.18-9.22 23.5-9.81a28.84 28.84 0 0 1 6.44-.82 28.84 28.84 0 0 1 6.45.82c3.32.59 16.5 6.47 23.5 9.8a33.7 33.7 0 0 0 22.52 2.64c8-1.87 10.51-6.73 11.27-12.01.76-5.29-.33-7.58-1.02-9.06-.7-1.47-5.18-7.72-12.1-4.2-2.74 1.38-2.84 3.37-2.37 5.42a7.31 7.31 0 0 0 2.37 3.56 6.4 6.4 0 0 1 .8-3.24c.83-1.21 1.9-1.47 3.26 0 1.36 1.46.28 6.16-3.57 7.36-3.85 1.2-9.58-5.43-12.67-8.2-3.1-2.76-8.14-9.3-20.84-10.32A18.44 18.44 0 0 0 64 57.33a18.44 18.44 0 0 0-14.56-9.1Z"/></svg>