<svg xmlns="http://www.w3.org/2000/svg" viewBox="0 0 128 128"><path fill="#0868AC" d="M9.63 32.18C-1.4 48.03-.04 68.66 8.38 85.5L9 86.7l.4.76.24.44.44.78.8 1.38.46.76c.3.49.62.97.94 1.46l.4.61c.43.66.88 1.3 1.35 1.95l.04.05.22.3c.4.56.82 1.1 1.23 1.65l.47.59 1.14 1.4.43.52a75.27 75.27 0 0 0 1.59 1.8l.03.04.06.07a80.44 80.44 0 0 0 1.61 1.7l.52.52c.42.43.85.84 1.29 1.26l.52.5c.58.55 1.17 1.08 1.77 1.6l.03.03.3.26 1.6 1.36.67.52c.44.36.89.7 1.34 1.05l.71.54 1.5 1.08.55.38.15.11c.47.33.96.65 1.45.96l.63.42c.75.48 1.51.95 2.28 1.4l.63.35c.57.33 1.13.65 1.71.96l.95.5 1.22.63.28.13.5.25 1.95.9.4.18a66.92 66.92 0 0 0 2.27.94l.55.22 2.13.79.27.09c.79.28 1.58.53 2.38.78l.58.17c.81.25 1.62.54 2.46.7 53.34 9.72 68.83-32.06 68.83-32.06-13.01 16.95-36.11 21.43-58 16.45-.83-.19-1.63-.45-2.44-.69l-.6-.18a72.5 72.5 0 0 1-2.36-.77l-.32-.12a72.25 72.25 0 0 1-2.08-.76l-.58-.23c-.75-.3-1.5-.61-2.24-.93l-.44-.2a92.86 92.86 0 0 1-1.9-.88l-.54-.26c-.49-.24-.98-.5-1.46-.75l-.98-.5a58.6 58.6 0 0 1-1.75-.99l-.59-.33a81.22 81.22 0 0 1-2.28-1.4l-.61-.4a59.28 59.28 0 0 1-1.63-1.08l-.52-.37a89.29 89.29 0 0 1-1.53-1.11l-.68-.51a64.47 64.47 0 0 1-1.38-1.09l-.62-.5a82.7 82.7 0 0 1-1.73-1.44l-.18-.16a83.47 83.47 0 0 1-1.82-1.65l-.5-.5a56 56 0 0 1-1.3-1.27l-.52-.5a70.54 70.54 0 0 1-1.6-1.7l-.08-.08a67.39 67.39 0 0 1-1.62-1.85l-.42-.5a70.6 70.6 0 0 1-1.17-1.44l-.43-.53a78.4 78.4 0 0 1-1.34-1.8c-12.15-16.57-16.52-39.43-6.8-58.2m25.62-2.44c-7.98 11.48-7.54 26.85-1.32 38.99a50.58 50.58 0 0 0 3.53 5.89c1.2 1.71 2.52 3.75 4.1 5.12a48.11 48.11 0 0 0 1.8 1.86l.47.47a51.69 51.69 0 0 0 1.82 1.7l.08.06.02.02a55.27 55.27 0 0 0 2.13 1.76l.49.38a54.08 54.08 0 0 0 2.23 1.63l.06.05 1.02.67.49.32c.54.35 1.1.7 1.65 1.02l.24.13c.48.28.97.56 1.46.82l.52.27 1.02.53.16.07c.7.35 1.41.68 2.13 1l.48.2c.58.24 1.16.48 1.75.7l.75.28c.53.2 1.06.37 1.6.56l.73.23c.77.24 1.53.54 2.32.67 41.19 6.82 50.7-24.89 50.7-24.89-8.57 12.35-25.17 18.24-42.88 13.64a50.38 50.38 0 0 1-2.34-.67l-.7-.23a45.42 45.42 0 0 1-1.63-.56l-.73-.28a56.42 56.42 0 0 1-1.76-.7l-.47-.2a47.73 47.73 0 0 1-2.15-1l-1.08-.55-.62-.32a44.5 44.5 0 0 1-1.36-.77l-.33-.19a47.84 47.84 0 0 1-1.65-1l-.5-.34a61.76 61.76 0 0 1-1.07-.7 57.46 57.46 0 0 1-2.22-1.63l-.5-.4c-7.76-6.12-13.9-14.48-16.82-23.97-3.07-9.83-2.4-20.88 2.9-29.84m22.28-.77c-4.7 6.92-5.17 15.51-1.9 23.15 3.44 8.12 10.49 14.48 18.72 17.5l1.02.35.45.15c.48.15.96.32 1.47.42 22.74 4.4 28.9-11.67 30.54-14.03-5.4 7.77-14.48 9.64-25.62 6.94a31.2 31.2 0 0 1-2.7-.83 33.24 33.24 0 0 1-3.2-1.33 33.22 33.22 0 0 1-5.6-3.43c-9.98-7.56-16.17-22-9.66-33.74"/></svg>