<svg xmlns="http://www.w3.org/2000/svg" viewBox="0 0 128 128"><style>svg{fill:#000}@media(prefers-color-scheme:dark){svg{fill:#fff}}</style><path d="M11.95 24.35A10.72 10.72 0 0 0 1.33 35.03v57.94c0 5.82 4.78 10.68 10.62 10.68h104.1c5.84 0 10.62-4.87 10.62-10.68V35.03c0-5.81-4.78-10.68-10.62-10.68H11.95zm0 9.54h104.1c.63 0 1.08.42 1.08 1.14v57.94c0 .72-.46 1.14-1.08 1.14H11.95c-.62 0-1.08-.42-1.08-1.14V35.03c0-.72.45-1.14 1.07-1.14z"/><path d="M20.72 84.1V43.9h11.7l11.7 14.78L55.8 43.9h11.7v40.2H55.8V61.04L44.1 75.82 32.4 61.04V84.1H20.73zm73.1 0L76.28 64.6h11.7V43.9h11.7v20.69h11.7zm0 0"/></svg>