<svg xmlns="http://www.w3.org/2000/svg" xml:space="preserve" x="0" y="0" version="1.1" viewBox="0 0 122.88 122.88"><style>svg{fill:#000}@media(prefers-color-scheme:dark){svg{fill:#fff}}</style><path d="M122.88 61.44c0 33.93-27.51 61.44-61.44 61.44C27.51 122.88 0 95.37 0 61.44 0 27.51 27.51 0 61.44 0c33.93 0 61.44 27.51 61.44 61.44zM88.3 22.73c-6.24.21-11.69 3.66-15.75 8.41-4.49 5.22-7.48 11.41-9.63 17.72-3.85-3.16-6.82-7.24-13-9.02-4.78-1.37-9.79-.81-14.4 2.63-2.18 1.63-3.69 4.09-4.4 6.42-1.85 6.02 1.95 11.39 3.67 13.31l3.77 4.04c.78.79 2.65 2.86 1.74 5.83-.99 3.23-4.88 5.31-8.87 4.09-1.78-.55-4.34-1.87-3.77-3.74.24-.77.78-1.34 1.08-1.99.27-.57.4-.99.48-1.25.73-2.38-.27-5.47-2.81-6.26-2.38-.73-4.81-.15-5.75 2.91-1.07 3.48.6 9.79 9.51 12.53 10.44 3.22 19.28-2.47 20.53-9.89.79-4.64-1.31-8.1-5.15-12.53l-3.13-3.47c-1.89-1.89-2.55-5.12-.58-7.6 1.66-2.1 4.01-2.99 7.88-1.94 5.64 1.53 8.15 5.44 12.35 8.6-1.73 5.68-2.86 11.39-3.89 16.5l-.63 3.81c-3 15.72-5.29 24.36-11.24 29.32-1.2.85-2.91 2.13-5.49 2.22-1.36.04-1.79-.89-1.81-1.3-.03-.95.77-1.39 1.3-1.81.8-.43 2-1.15 1.91-3.46-.08-2.72-2.34-5.08-5.6-4.97-2.44.08-6.16 2.38-6.02 6.58.14 4.35 4.19 7.6 10.3 7.4 3.26-.11 10.55-1.44 17.73-9.98C67 86.07 69.34 74.85 71.1 66.64l1.96-10.84c1.09.13 2.26.22 3.53.25 10.41.22 15.62-5.17 15.7-9.1.05-2.37-1.56-4.71-3.81-4.66-1.61.04-3.64 1.12-4.12 3.35-.48 2.18 3.31 4.16.35 6.08-2.1 1.36-5.87 2.32-11.18 1.54l.97-5.34c1.97-10.12 4.4-22.57 13.62-22.87.67-.03 3.13.03 3.19 1.66.02.54-.12.68-.76 1.93-.65.97-.89 1.8-.86 2.74.09 2.58 2.05 4.28 4.9 4.18 3.8-.13 4.9-3.83 4.83-5.73-.17-4.48-4.88-7.3-11.12-7.1z"/></svg>